<?xml version="1.0" encoding="UTF-8"?>
<svg enable-background="new 0 0 188.7 88" version="1.1" viewBox="0 0 188.7 88" xml:space="preserve" xmlns="http://www.w3.org/2000/svg">
<style type="text/css">
	.st0{fill:#005CA9;}
	.st1{fill:none;stroke:#FFFFFF;stroke-width:0.5;}
</style>
			<path d="m19.6 73.6c0 1.9-1.5 3.4-3.4 3.4s-3.4-1.5-3.4-3.4c0-1.8 1.5-3.3 3.3-3.3 2 0 3.5 1.5 3.5 3.3z"/>
			<path d="m27.9 56.5v19.9h-4.2v-19.9h4.2z"/>
			<path d="m38.4 64.4h-2.5v7.4c0 1.9 0.3 2.4 1.7 2.4 0.3 0 0.7-0.1 1.4-0.3l0.5 2.3c-1.1 0.5-2.1 0.7-3.1 0.7-2 0-3.5-0.9-4-2.2-0.2-0.6-0.3-0.9-0.3-2.3v-8h-1.5v-2.6h1.5c0-1.4 0-2.4 0.1-3.5l3.9-1c-0.1 1.3-0.2 3-0.2 4.4h3.4l-0.9 2.7z"/>
			<path d="m50.5 61.6l1.2 5.7c0.4 1.7 0.8 4.6 0.8 4.6s0.4-2.6 1.1-5.1l1.4-4.9h3.6l1.2 4.8c0.7 2.7 1.1 5.2 1.1 5.2 0.1-0.6 0.4-2.9 0.8-4.8l1.1-5.2h4l-4.2 14.7h-3.6l-1.3-5c-0.3-1.2-0.7-2.6-0.8-3.6-0.1-0.7-0.1-0.9-0.2-1.5-0.1 0.6-0.1 0.8-0.3 1.9-0.4 1.1-1.1 3.6-1.4 5l-0.7 3h-3.6l-4-14.4 3.8-0.4z"/>
			<path d="m79.3 63.7c1.2 1.4 1.7 3 1.7 5.4 0 2.5-0.6 4.2-1.8 5.7-1.1 1.3-2.6 2-4.8 2-4 0-6.6-3-6.6-7.6s2.6-7.7 6.6-7.7c2 0 3.7 0.7 4.9 2.2zm-6.9 2.1c-0.3 0.8-0.4 1.8-0.4 3.3 0 1.7 0.2 3 0.5 3.7 0.3 0.8 1.2 1.2 2 1.2 1.7 0 2.4-1.5 2.4-5 0-2-0.3-3.3-0.8-3.9-0.4-0.5-1-0.8-1.7-0.8-0.9 0-1.7 0.6-2 1.5z"/>
			<path d="m86.8 61.4c0.3 0.6 0.5 1.3 0.6 2.1 0.5-0.7 1.5-1.5 2.2-1.9 0.3-0.1 0.8-0.2 1.3-0.2 0.6 0 0.8 0.1 1.4 0.3l-1.1 3.4c-0.4-0.2-0.7-0.3-1.1-0.3-0.9 0-1.6 0.4-2.4 1.2v10.4h-3.8v-9.8c0-2-0.2-3.5-0.5-4.3l3.4-0.9z"/>
			<path d="m106.4 61.7l-4.7 6.1 5.8 8.5h-4.5l-5-8.2 3.8-6.4h4.6zm-8.7-6.6c0.2 1.1 0.2 2.8 0.2 4.8v16.6h-3.8v-16.6c0-1.3 0-2.3-0.3-3.8l3.9-1z"/>
			<path d="m117.5 65.3c-1.5-0.7-2.5-1.1-3.6-1.1s-1.9 0.6-1.9 1.4c0 0.7 0.5 1.1 1.8 1.5l1.8 0.5c1.8 0.5 2.4 1 2.9 1.7s0.8 1.5 0.8 2.5c0 3-2.5 5.1-6.3 5.1-1.8 0-3.8-0.6-5.9-1.7l1.4-2.8c1.2 0.7 3.2 1.7 4.9 1.7 1.1 0 2-0.7 2-1.7s-0.7-1.5-2.3-1.8l-1.7-0.3c-1-0.2-2.2-0.9-2.7-1.5s-0.8-1.7-0.8-2.6c0-2.9 2.3-4.8 5.7-4.8 2.4 0 3.9 0.7 5.2 1.4l-1.3 2.5z"/>
		<polygon class="st0" points="38.4 31.7 52.6 16.3 37.5 16.3 26.7 29.5 26.6 29.5 26.6 16.3 13.7 16.3 13.7 50.7 26.6 50.7 26.6 36.1 26.7 36.1 36.8 50.7 52.4 50.7 38.4 31.9"/>
		<polygon class="st0" points="54.1 50.7 65.9 50.7 65.9 37.7 66.3 37.7 79.5 50.7 89.9 50.7 89.9 16.3 78 16.3 78 30.6 77.6 30.6 64.3 16.3 54.1 16.3"/>
		<path class="st0" d="m91.6 33.9c0-10 8.6-18.1 19.2-18.1s19.2 8.1 19.2 18.1-8.6 18.1-19.2 18.1-19.2-8.1-19.2-18.1zm19.2 7.5c3.6 0 6.4-3.4 6.4-7.6s-2.9-7.6-6.4-7.6c-3.6 0-6.4 3.4-6.4 7.6-0.1 4.2 2.8 7.6 6.4 7.6z"/>
		<polygon class="st0" points="144.6 41.9 144.6 16.3 131.8 16.3 131.8 50.7 152.2 50.7 152.2 41.9"/>
		<polygon class="st0" points="166.3 41.9 166.3 16.3 153.5 16.3 153.5 50.7 174 50.7 174 41.9"/>
<rect class="st1" x="11.2" y="14.5" width="164.7" height="64"/>
</svg>
