<?xml version="1.0" encoding="utf-8"?>
<!-- Generator: Adobe Illustrator 21.1.0, SVG Export Plug-In . SVG Version: 6.00 Build 0)  -->
<!DOCTYPE svg PUBLIC "-//W3C//DTD SVG 1.1//EN" "http://www.w3.org/Graphics/SVG/1.1/DTD/svg11.dtd">
<svg version="1.1" id="Ebene_1" xmlns="http://www.w3.org/2000/svg" xmlns:xlink="http://www.w3.org/1999/xlink" x="0px" y="0px"
	 viewBox="0 0 512 512" style="enable-background:new 0 0 512 512;" xml:space="preserve">
<style type="text/css">
	.st0{fill:#005CA9;}
</style>
<g>
	<path class="st0" d="M174.8,325.5c49.8,0,89.9-64.1,89.9-117.2c0-52.6-40.3-95.4-89.9-95.4s-89.9,42.8-89.9,95.4
		C84.8,261.4,124.9,325.5,174.8,325.5z M174.8,129.3c40.6,0,73.6,35.5,73.6,79c0,45.4-34,100.8-73.6,100.8s-73.6-55.5-73.6-100.8
		C101.2,164.7,134.2,129.3,174.8,129.3z"/>
	<path class="st0" d="M279.5,318.3c-9-3-18.6-5.7-30.5-8.5l-5.6-1.3l-68.6,108l-68.6-108l-5.6,1.3c-11.8,2.8-21.5,5.5-30.5,8.5
		c-29.2,9.9-50.5,36.1-54.3,66.8L2,497.2h345.5l-13.7-112.1C330,354.5,308.7,328.3,279.5,318.3z M20.5,480.9L32,387.1
		c3-24.4,20-45.3,43.3-53.3c7-2.4,14.5-4.5,23.3-6.7L174.8,447L251,327.1c8.8,2.2,16.3,4.3,23.3,6.7c23.3,7.9,40.3,28.8,43.3,53.3
		l11.5,93.8L20.5,480.9L20.5,480.9z"/>
	<rect x="248.4" y="415.4" class="st0" width="49.1" height="16.4"/>
	<path class="st0" d="M485.5,14.8H289.2c-13.5,0-24.5,11-24.5,24.5v81.8c0,13.5,11,24.5,24.5,24.5h8.2v61.2l61.2-61.2h126.9
		c13.5,0,24.5-11,24.5-24.5V39.3C510,25.8,499,14.8,485.5,14.8z M493.6,121.1c0,4.5-3.7,8.2-8.2,8.2H351.8l-38.1,38.1v-38.1h-24.5
		c-4.5,0-8.2-3.7-8.2-8.2V39.3c0-4.5,3.7-8.2,8.2-8.2h196.2c4.5,0,8.2,3.7,8.2,8.2L493.6,121.1L493.6,121.1z"/>
	<rect x="305.6" y="55.7" class="st0" width="163.5" height="16.4"/>
	<rect x="379.2" y="88.4" class="st0" width="16.4" height="16.4"/>
	<rect x="411.9" y="88.4" class="st0" width="16.4" height="16.4"/>
	<rect x="346.5" y="88.4" class="st0" width="16.4" height="16.4"/>
</g>
</svg>
