<?xml version="1.0" encoding="utf-8"?>
<!-- Generator: Adobe Illustrator 21.0.2, SVG Export Plug-In . SVG Version: 6.00 Build 0)  -->
<svg version="1.1" id="Ebene_1" xmlns="http://www.w3.org/2000/svg" xmlns:xlink="http://www.w3.org/1999/xlink" x="0px" y="0px"
	 viewBox="0 0 942 861" style="enable-background:new 0 0 942 861;" xml:space="preserve">
<style type="text/css">
	.st0{fill:#005CA9;}
	.st1{fill:none;stroke:#005CA8;stroke-width:17;stroke-miterlimit:10;}
	.st2{fill:#005CA8;}
</style>
<g>
	<path class="st0" d="M791.3,304.7h-266v508h372.5V411.3L791.3,304.7z M796.3,333.6l72.7,72.7h-72.7V333.6z M542.3,795.8V321.6
		h237.1v101.6H881v372.5L542.3,795.8L542.3,795.8z"/>
	<rect x="567.7" y="507.9" class="st0" width="287.9" height="16.9"/>
	<rect x="567.7" y="575.6" class="st0" width="287.9" height="16.9"/>
	<rect x="567.7" y="643.4" class="st0" width="287.9" height="16.9"/>
	<rect x="567.7" y="711.1" class="st0" width="186.3" height="16.9"/>
	<path class="st0" d="M626.9,414.8c23.3,0,42.3,19,42.3,42.3h16.9c0-23.7-14-44.2-34.2-53.6c5.4-6,8.8-13.9,8.8-22.6
		c0-18.7-15.2-33.9-33.9-33.9s-33.9,15.2-33.9,33.9c0,8.7,3.4,16.6,8.8,22.6c-20.2,9.5-34.2,29.9-34.2,53.6h17.1
		C584.6,433.8,603.6,414.8,626.9,414.8z M610,380.9c0-9.3,7.6-16.9,16.9-16.9s16.9,7.6,16.9,16.9s-7.6,16.9-16.9,16.9
		S610,390.2,610,380.9z"/>
	<rect x="770.9" y="711.1" class="st0" width="16.9" height="16.9"/>
	<rect x="804.7" y="711.1" class="st0" width="16.9" height="16.9"/>
	<rect x="838.6" y="711.1" class="st0" width="16.9" height="16.9"/>
</g>
<path class="st1" d="M250.7,313.6l-52.1-30.1c-2.7-1.6-6.1-1.6-8.9,0c-2.7,1.6-4.4,4.5-4.4,7.7v60.2c0,3.2,1.7,6.1,4.4,7.7
	c1.4,0.8,2.9,1.2,4.4,1.2s3.1-0.4,4.4-1.2l52.1-30.1c2.7-1.6,4.4-4.5,4.4-7.7C255.1,318.2,253.4,315.2,250.7,313.6z"/>
<g>
	<path class="st2" d="M353.6,63v377.1H65.1V63H353.6 M363.5,46H55.2c-3.9,0-7.1,3.2-7.1,7.1V450c0,3.9,3.2,7.1,7.1,7.1h308.2
		c3.9,0,7.1-3.2,7.1-7.1V53.1C370.6,49.2,367.4,46,363.5,46L363.5,46z"/>
</g>
<circle class="st2" cx="209.3" cy="418.3" r="16.6"/>
<g>
	<circle class="st1" cx="209.3" cy="170.8" r="48.1"/>
	<path class="st1" d="M127.7,300.3c0-101.5,163.3-99.8,163.2,0"/>
</g>
<g>
	<path class="st2" d="M319.8,100v276h-221V100H319.8 M329.8,83H88.9c-3.9,0-7.1,3.2-7.1,7.1v295.7c0,3.9,3.2,7.1,7.1,7.1h240.8
		c3.9,0,7.1-3.2,7.1-7.1V90.1C336.8,86.2,333.7,83,329.8,83L329.8,83z"/>
</g>
<g>
	<path class="st2" d="M332.7,505c7.3,0,13,2.5,17.4,7.7c4.1,4.8,5.9,10.4,5.9,18.7c0,8.8-2,14.8-6.4,19.8c-3.9,4.4-9,7.1-16.9,7.1
		c-13.9,0-23-10.4-23-26.5C309.7,515.7,318.9,505,332.7,505z M332.9,514.9c-3.2,0-5.8,2-6.9,5.2c-0.9,2.7-1.4,6.3-1.4,11.4
		c0,5.9,0.6,10.3,1.7,12.9c1.2,2.8,4.2,4.2,6.8,4.2c5.8,0,8.3-5.2,8.3-17.3c0-6.9-0.9-11.4-2.7-13.7
		C337.4,515.9,335.3,514.9,332.9,514.9z"/>
	<path class="st2" d="M406.8,485.3v53.2c0,12.6,1,16.7,1.9,18.7h-12c-0.4-0.8-0.6-1.6-0.8-3c-3.3,2.9-7.2,4.3-11.8,4.3
		c-13,0-21.2-10.1-21.2-26c0-16,8.9-27,21.9-27c3.7,0,6.6,0.9,9.1,2.9c-0.2-1.1-0.4-4.6-0.4-7.6v-17.6L406.8,485.3z M393.7,519.5
		c-2.5-2.2-4.9-3.3-7.3-3.3c-6,0-8.6,5-8.6,16.4c0,11,2.3,14.6,9.3,14.6c2.5,0,5.3-1.7,6.6-3.3V519.5z"/>
	<path class="st2" d="M455.3,543.6l5.2,8c-5.9,4.8-12.1,7.1-19.3,7.1c-14.7,0-24.2-10.4-24.2-26.5c0-9.2,1.9-15.3,6.4-20.3
		c4.2-4.7,9.3-6.9,16.1-6.9c5.9,0,11.5,2,14.8,5.4c4.7,4.8,6.8,11.7,6.8,22.4c0,1.1,0,1.5,0,3.1h-29.6v0.4c0,7.9,3.9,12.4,10.8,12.4
		C446.9,548.7,451.2,547,455.3,543.6z M431.7,526.1h15.5v-0.6c0-3.8-0.4-5.8-1.6-7.7c-1.3-2-3.2-3-5.9-3c-5.1,0-8,4-8,11.1V526.1z"
		/>
	<path class="st2" d="M469.1,508l12-3.2c1.2,2.1,1.9,4.4,2.1,7.3c1.9-2.6,5.1-5.3,7.6-6.5c1.1-0.5,2.9-0.8,4.4-0.8
		c2,0,2.9,0.2,5,1.1l-3.7,11.8c-1.3-0.7-2.4-1-3.9-1c-3,0-5.7,1.4-8.2,4.3v36.2H471V523C471,516.1,470.2,510.9,469.1,508z"/>
</g>
</svg>
