<?xml version="1.0" encoding="utf-8"?>
<!-- Generator: Adobe Illustrator 21.1.0, SVG Export Plug-In . SVG Version: 6.00 Build 0)  -->
<!DOCTYPE svg PUBLIC "-//W3C//DTD SVG 1.1//EN" "http://www.w3.org/Graphics/SVG/1.1/DTD/svg11.dtd">
<svg version="1.1" id="Ebene_1" xmlns="http://www.w3.org/2000/svg" xmlns:xlink="http://www.w3.org/1999/xlink" x="0px" y="0px"
	 viewBox="0 0 188.7 188.7" style="enable-background:new 0 0 188.7 188.7;" xml:space="preserve">
<style type="text/css">
	.st0{fill:#005CA9;}
	.st1{fill:none;stroke:#FFFFFF;stroke-width:0.5;}
</style>
<g>
	<g>
		<g>
			<path d="M19.6,124c0,1.9-1.5,3.4-3.4,3.4s-3.4-1.5-3.4-3.4c0-1.8,1.5-3.3,3.3-3.3C18.1,120.7,19.6,122.2,19.6,124z"/>
			<path d="M27.9,106.9v19.9h-4.2v-19.9H27.9z"/>
			<path d="M38.4,114.8h-2.5v7.4c0,1.9,0.3,2.4,1.7,2.4c0.3,0,0.7-0.1,1.4-0.3l0.5,2.3c-1.1,0.5-2.1,0.7-3.1,0.7c-2,0-3.5-0.9-4-2.2
				c-0.2-0.6-0.3-0.9-0.3-2.3v-8h-1.5v-2.6h1.5c0-1.4,0-2.4,0.1-3.5l3.9-1c-0.1,1.3-0.2,3-0.2,4.4h3.4L38.4,114.8z"/>
			<path d="M50.5,112l1.2,5.7c0.4,1.7,0.8,4.6,0.8,4.6s0.4-2.6,1.1-5.1l1.4-4.9h3.6l1.2,4.8c0.7,2.7,1.1,5.2,1.1,5.2
				c0.1-0.6,0.4-2.9,0.8-4.8l1.1-5.2h4L62.6,127H59l-1.3-5c-0.3-1.2-0.7-2.6-0.8-3.6c-0.1-0.7-0.1-0.9-0.2-1.5
				c-0.1,0.6-0.1,0.8-0.3,1.9c-0.4,1.1-1.1,3.6-1.4,5l-0.7,3h-3.6l-4-14.4L50.5,112z"/>
			<path d="M79.3,114.1c1.2,1.4,1.7,3,1.7,5.4c0,2.5-0.6,4.2-1.8,5.7c-1.1,1.3-2.6,2-4.8,2c-4,0-6.6-3-6.6-7.6s2.6-7.7,6.6-7.7
				C76.4,111.9,78.1,112.6,79.3,114.1z M72.4,116.2c-0.3,0.8-0.4,1.8-0.4,3.3c0,1.7,0.2,3,0.5,3.7c0.3,0.8,1.2,1.2,2,1.2
				c1.7,0,2.4-1.5,2.4-5c0-2-0.3-3.3-0.8-3.9c-0.4-0.5-1-0.8-1.7-0.8C73.5,114.7,72.7,115.3,72.4,116.2z"/>
			<path d="M86.8,111.8c0.3,0.6,0.5,1.3,0.6,2.1c0.5-0.7,1.5-1.5,2.2-1.9c0.3-0.1,0.8-0.2,1.3-0.2c0.6,0,0.8,0.1,1.4,0.3l-1.1,3.4
				c-0.4-0.2-0.7-0.3-1.1-0.3c-0.9,0-1.6,0.4-2.4,1.2v10.4h-3.8V117c0-2-0.2-3.5-0.5-4.3L86.8,111.8z"/>
			<path d="M106.4,112.1l-4.7,6.1l5.8,8.5H103l-5-8.2l3.8-6.4C101.8,112.1,106.4,112.1,106.4,112.1z M97.7,105.5
				c0.2,1.1,0.2,2.8,0.2,4.8v16.6h-3.8v-16.6c0-1.3,0-2.3-0.3-3.8L97.7,105.5z"/>
			<path d="M117.5,115.7c-1.5-0.7-2.5-1.1-3.6-1.1s-1.9,0.6-1.9,1.4c0,0.7,0.5,1.1,1.8,1.5l1.8,0.5c1.8,0.5,2.4,1,2.9,1.7
				s0.8,1.5,0.8,2.5c0,3-2.5,5.1-6.3,5.1c-1.8,0-3.8-0.6-5.9-1.7l1.4-2.8c1.2,0.7,3.2,1.7,4.9,1.7c1.1,0,2-0.7,2-1.7
				s-0.7-1.5-2.3-1.8l-1.7-0.3c-1-0.2-2.2-0.9-2.7-1.5s-0.8-1.7-0.8-2.6c0-2.9,2.3-4.8,5.7-4.8c2.4,0,3.9,0.7,5.2,1.4L117.5,115.7z"
				/>
		</g>
	</g>
	<g>
		<polygon class="st0" points="38.4,82.1 52.6,66.7 37.5,66.7 26.7,79.9 26.6,79.9 26.6,66.7 13.7,66.7 13.7,101.1 26.6,101.1 
			26.6,86.5 26.7,86.5 36.8,101.1 52.4,101.1 38.4,82.3 		"/>
		<polygon class="st0" points="54.1,101.1 65.9,101.1 65.9,88.1 66.3,88.1 79.5,101.1 89.9,101.1 89.9,66.7 78,66.7 78,81 77.6,81 
			64.3,66.7 54.1,66.7 		"/>
		<path class="st0" d="M91.6,84.3c0-10,8.6-18.1,19.2-18.1S130,74.3,130,84.3s-8.6,18.1-19.2,18.1S91.6,94.3,91.6,84.3z M110.8,91.8
			c3.6,0,6.4-3.4,6.4-7.6s-2.9-7.6-6.4-7.6c-3.6,0-6.4,3.4-6.4,7.6C104.3,88.4,107.2,91.8,110.8,91.8z"/>
		<polygon class="st0" points="144.6,92.3 144.6,66.7 131.8,66.7 131.8,101.1 152.2,101.1 152.2,92.3 		"/>
		<polygon class="st0" points="166.3,92.3 166.3,66.7 153.5,66.7 153.5,101.1 174,101.1 174,92.3 		"/>
	</g>
</g>
<rect x="11.2" y="64.9" class="st1" width="164.7" height="64"/>
</svg>
