<?xml version="1.0" encoding="utf-8"?>
<!-- Generator: Adobe Illustrator 21.1.0, SVG Export Plug-In . SVG Version: 6.00 Build 0)  -->
<!DOCTYPE svg PUBLIC "-//W3C//DTD SVG 1.1//EN" "http://www.w3.org/Graphics/SVG/1.1/DTD/svg11.dtd">
<svg version="1.1" id="Ebene_1" xmlns="http://www.w3.org/2000/svg" xmlns:xlink="http://www.w3.org/1999/xlink" x="0px" y="0px"
	 viewBox="0 0 512 512" style="enable-background:new 0 0 512 512;" xml:space="preserve">
<style type="text/css">
	.st0{fill:#005CA9;}
</style>
<g>
	<path class="st0" d="M448.9,273.6c6.8-6.8,18.6-6.8,25.4,0c7,7,7,18.4,0,25.4l-12.7,12.7l-25.4-25.3L448.9,273.6z M369.2,329.2
		l-24.7,24.7H149.1v16.9h178.5l-72.8,72.8l-16.4,65.7l65.7-16.4l65.1-65.1l16.9-16.9l75.4-75.4l12.9,12.9l-50,50l12,12l62-62
		l-24.9-24.8l12.7-12.7c13.6-13.6,13.6-35.7,0-49.3c-6.6-6.6-15.3-10.2-24.6-10.2c-9.3,0-18.1,3.6-24.6,10.2l-50.7,50.7
		 M267.1,464.5l16.2,16.2l-21.6,5.4L267.1,464.5z M299.8,473.3L274.5,448l44-44l25.4,25.4L299.8,473.3z M355.8,417.3L330.4,392
		l93.8-93.8l25.4,25.3L355.8,417.3z"/>
	<path class="st0" d="M123.7,7.6H55.9v66.6h67.7L123.7,7.6L123.7,7.6z M106.7,57.3H72.9V24.6h33.9v32.7H106.7z"/>
	<rect x="149.1" y="32.5" class="st0" width="93.1" height="16.9"/>
	<path class="st0" d="M123.7,168.4H55.9V235h67.7L123.7,168.4L123.7,168.4z M106.7,218H72.9v-32.7h33.9V218H106.7z"/>
	<rect x="149.1" y="193.2" class="st0" width="194.7" height="16.9"/>
	<path class="st0" d="M123.7,329.1H55.9v66.6h67.7L123.7,329.1L123.7,329.1z M106.7,378.8H72.9V346h33.9v32.8H106.7z"/>
</g>
</svg>
