<?xml version="1.0" encoding="utf-8"?>
<!-- Generator: Adobe Illustrator 21.1.0, SVG Export Plug-In . SVG Version: 6.00 Build 0)  -->
<!DOCTYPE svg PUBLIC "-//W3C//DTD SVG 1.1//EN" "http://www.w3.org/Graphics/SVG/1.1/DTD/svg11.dtd">
<svg version="1.1" id="Ebene_1" xmlns="http://www.w3.org/2000/svg" xmlns:xlink="http://www.w3.org/1999/xlink" x="0px" y="0px"
	 viewBox="0 0 512 512" style="enable-background:new 0 0 512 512;" xml:space="preserve">
<style type="text/css">
	.st0{fill:#005CA9;}
</style>
<g>
	<path class="st0" d="M335.7,2h-266v508h372.5V108.6L335.7,2z M340.7,30.9l72.7,72.7h-72.7V30.9z M86.7,493.1V18.9h237.1v101.6
		h101.6V493H86.7V493.1z"/>
	<rect x="112.1" y="205.2" class="st0" width="287.9" height="16.9"/>
	<rect x="112.1" y="272.9" class="st0" width="287.9" height="16.9"/>
	<rect x="112.1" y="340.7" class="st0" width="287.9" height="16.9"/>
	<rect x="112.1" y="408.4" class="st0" width="186.3" height="16.9"/>
	<path class="st0" d="M171.3,112.1c23.3,0,42.3,19,42.3,42.3h16.9c0-23.7-14-44.2-34.2-53.6c5.4-6,8.8-13.9,8.8-22.6
		c0-18.7-15.2-33.9-33.9-33.9s-33.9,15.2-33.9,33.9c0,8.7,3.4,16.6,8.8,22.6c-20.2,9.5-34.2,29.9-34.2,53.6H129
		C129,131.1,148,112.1,171.3,112.1z M154.4,78.2c0-9.3,7.6-16.9,16.9-16.9c9.3,0,16.9,7.6,16.9,16.9s-7.6,16.9-16.9,16.9
		S154.4,87.5,154.4,78.2z"/>
	<rect x="315.3" y="408.4" class="st0" width="16.9" height="16.9"/>
	<rect x="349.1" y="408.4" class="st0" width="16.9" height="16.9"/>
	<rect x="383" y="408.4" class="st0" width="16.9" height="16.9"/>
</g>
</svg>
