<?xml version="1.0" encoding="utf-8"?>
<!-- Generator: Adobe Illustrator 21.1.0, SVG Export Plug-In . SVG Version: 6.00 Build 0)  -->
<!DOCTYPE svg PUBLIC "-//W3C//DTD SVG 1.1//EN" "http://www.w3.org/Graphics/SVG/1.1/DTD/svg11.dtd">
<svg version="1.1" id="Ebene_1" xmlns="http://www.w3.org/2000/svg" xmlns:xlink="http://www.w3.org/1999/xlink" x="0px" y="0px"
	 viewBox="0 0 512 512" style="enable-background:new 0 0 512 512;" xml:space="preserve">
<style type="text/css">
	.st0{fill:#005CA9;}
</style>
<g>
	<path class="st0" d="M260.2,85.3c23,0,41.6-18.7,41.6-41.6c0-23-18.7-41.6-41.6-41.6c-23,0-41.6,18.7-41.6,41.6
		C218.5,66.6,237.2,85.3,260.2,85.3z M260.2,18.7c13.8,0,25,11.2,25,25s-11.2,25-25,25s-25-11.2-25-25S246.4,18.7,260.2,18.7z"/>
	<path class="st0" d="M260.2,401.7c27.6,0,50-22.4,50-50s-22.4-50-50-50s-50,22.4-50,50S232.6,401.7,260.2,401.7z M260.2,318.5
		c18.4,0,33.3,14.9,33.3,33.3s-14.9,33.3-33.3,33.3s-33.3-14.9-33.3-33.3C226.9,333.4,241.8,318.5,260.2,318.5z"/>
	<path class="st0" d="M101.9,401.7c27.6,0,50-22.4,50-50s-22.4-50-50-50s-50,22.4-50,50S74.4,401.7,101.9,401.7z M101.9,318.5
		c18.4,0,33.3,14.9,33.3,33.3s-14.9,33.3-33.3,33.3s-33.3-14.9-33.3-33.3C68.6,333.4,83.6,318.5,101.9,318.5z"/>
	<path class="st0" d="M360.1,351.8c0,27.6,22.4,50,50,50s50-22.4,50-50s-22.4-50-50-50S360.1,324.2,360.1,351.8z M443.4,351.8
		c0,18.4-14.9,33.3-33.3,33.3s-33.3-14.9-33.3-33.3s14.9-33.3,33.3-33.3S443.4,333.4,443.4,351.8z"/>
	<path class="st0" d="M410.1,410.1c-29.8,0-56.6,13.2-74.9,34c-18.9-21.4-46.2-34-75-34c-31.1,0-60.4,14.7-79.2,39
		c-18.3-23.7-46.9-39-79-39C46.8,410.1,2,454.9,2,510h16.7c0-45.9,37.4-83.3,83.3-83.3s83.3,37.4,83.3,83.3H202
		c0-16.5-4.1-32-11.1-45.7c15.3-23.2,41.5-37.6,69.4-37.6c25.3,0,49,11.6,64.8,31.2c-9.3,15.2-14.8,33-14.8,52.1H327
		c0-45.9,37.4-83.3,83.3-83.3s83.3,37.4,83.3,83.3H510C510,454.9,465.2,410.1,410.1,410.1z"/>
	<path class="st0" d="M343.5,168.6c0-31.9-22.5-60.3-56-70.8l-6-1.9l-21.3,32.5l-21.3-32.5l-6,1.9c-33.5,10.5-56,38.9-56,70.8v41.6
		h166.6V168.6z M326.8,193.5H193.5v-25c0-22.7,15.2-43.2,38.5-52.8l28.2,42.9l28.2-42.9c23.2,9.5,38.5,30.1,38.5,52.8v25H326.8z"/>
	<polygon class="st0" points="118.6,243.5 251.8,243.5 251.8,285.1 268.5,285.1 268.5,243.5 401.7,243.5 401.7,285.1 418.4,285.1 
		418.4,226.9 101.9,226.9 101.9,285.1 118.6,285.1 	"/>
	<rect x="143.6" y="260.2" class="st0" width="16.7" height="16.7"/>
	<rect x="176.9" y="260.2" class="st0" width="16.7" height="16.7"/>
	<rect x="210.2" y="260.2" class="st0" width="16.7" height="16.7"/>
	<rect x="293.5" y="260.2" class="st0" width="16.7" height="16.7"/>
	<rect x="326.8" y="260.2" class="st0" width="16.7" height="16.7"/>
	<rect x="360.1" y="260.2" class="st0" width="16.7" height="16.7"/>
</g>
</svg>
