<?xml version="1.0" encoding="utf-8"?>
<!-- Generator: Adobe Illustrator 21.1.0, SVG Export Plug-In . SVG Version: 6.00 Build 0)  -->
<!DOCTYPE svg PUBLIC "-//W3C//DTD SVG 1.1//EN" "http://www.w3.org/Graphics/SVG/1.1/DTD/svg11.dtd">
<svg version="1.1" id="Ebene_1" xmlns="http://www.w3.org/2000/svg" xmlns:xlink="http://www.w3.org/1999/xlink" x="0px" y="0px"
	 viewBox="0 0 512 512" style="enable-background:new 0 0 512 512;" xml:space="preserve">
<style type="text/css">
	.st0{fill:#005CA9;}
</style>
<g>
	<path class="st0" d="M200,199c-35,35-35,92,0,127c1.6,1.6,3.7,2.4,5.8,2.4s4.2-0.8,5.8-2.4c3.2-3.2,3.2-8.4,0-11.5
		c-28.6-28.6-28.6-75.2,0-103.9c13.9-13.9,32.3-21.5,51.9-21.5c4.5,0,8.2-3.7,8.2-8.2s-3.7-8.2-8.2-8.2
		C239.5,172.7,217,182.1,200,199z"/>
	<path class="st0" d="M509.9,450.5c-1.3-18.8-11-36.4-26.7-48.3L384.7,330c11.4-20.4,17.6-43.5,17.6-67.5
		c0-37.1-14.4-71.9-40.6-98.1c-18.8-18.8-41.7-30.9-65.8-36.6V89.4L209.4,3H2v440.7h293.8v-46.5c12.1-2.9,24-7.4,35.1-13.6
		l72.3,98.6c11.8,15.6,29.4,25.3,48.2,26.6c1.4,0.1,2.8,0.1,4.2,0.1c14.9,0,28.5-5.5,38.6-15.7C505.5,482.2,511,467,509.9,450.5z
		 M385.9,262.5c0,23.4-6.6,45.8-18.8,65.1l-0.1,0.2c-5,7.9-10.7,15-16.9,21.3c-6.2,6.2-13.3,11.8-21.1,16.8
		c-47.3,30-110.8,24.4-152-16.8c-47.7-47.7-47.7-125.4,0-173.1c23.9-23.9,55.2-35.8,86.6-35.8c31.3,0,62.7,11.9,86.6,35.8
		C373.2,199.1,385.9,229.8,385.9,262.5z M214.2,30.9L268,84.6h-53.8V30.9z M279.5,427.4H18.3V19.3h179.6v81.6h81.6v23.9
		c-40.7-4.7-83,8.4-114.1,39.6c-3.2,3.2-6.2,6.6-9,10H42.8v16.3h102.1c-15.1,24.9-21.6,53.5-19.7,81.6H42.8v16.3h84.5
		c5,26.4,17.7,51.6,38.1,72c3.4,3.4,7,6.6,10.7,9.6H42.8v16.3H199v-1.2c20.1,10.5,42.3,15.8,64.5,15.8c5.4,0,10.7-0.4,16-1V427.4z
		 M482.8,481.8c-7.8,7.7-18.5,11.5-30.2,10.8c-14.1-1-27.3-8.3-36.2-20.1l-71.6-97.6c0.9-0.7,1.7-1.4,2.6-2.1c1.7-1.3,3.4-2.6,5.1-4
		c3.2-2.6,6.3-5.4,9.1-8.2c2.8-2.8,5.5-5.8,8.1-8.9c1.6-1.9,3.1-3.9,4.6-5.8c0.5-0.7,1.1-1.4,1.7-2.1l97.5,71.5
		c11.9,9,19.2,22.2,20.2,36.3C494.4,463.3,490.6,474.1,482.8,481.8z"/>
	
		<rect x="386.3" y="385.3" transform="matrix(0.7071 -0.7071 0.7071 0.7071 -162.6793 394.1686)" class="st0" width="16.3" height="16.3"/>
	
		<rect x="409.3" y="408.3" transform="matrix(0.7071 -0.7071 0.7071 0.7071 -172.2504 417.146)" class="st0" width="16.3" height="16.3"/>
	
		<rect x="432.4" y="431.5" transform="matrix(0.707 -0.7072 0.7072 0.707 -181.8323 440.4013)" class="st0" width="16.3" height="16.3"/>
	<path class="st0" d="M140.8,43.8h-98v97.9h97.9V43.8H140.8z M124.4,125.4H59.1V60.1h65.3V125.4z"/>
</g>
</svg>
