<?xml version="1.0" encoding="utf-8"?>
<!-- Generator: Adobe Illustrator 21.1.0, SVG Export Plug-In . SVG Version: 6.00 Build 0)  -->
<!DOCTYPE svg PUBLIC "-//W3C//DTD SVG 1.1//EN" "http://www.w3.org/Graphics/SVG/1.1/DTD/svg11.dtd">
<svg version="1.1" id="Ebene_1" xmlns="http://www.w3.org/2000/svg" xmlns:xlink="http://www.w3.org/1999/xlink" x="0px" y="0px"
	 viewBox="0 0 512 512" style="enable-background:new 0 0 512 512;" xml:space="preserve">
<style type="text/css">
	.st0{fill:#005CA9;}
</style>
<g>
	<path class="st0" d="M189.7,52H59.1v163.2h130.6L189.7,52L189.7,52z M173.4,198.9H75.5V68.3h97.9V198.9z"/>
	<rect x="42.8" y="247.8" class="st0" width="293.8" height="16.3"/>
	<rect x="42.8" y="296.8" class="st0" width="228.5" height="16.3"/>
	<rect x="42.8" y="345.8" class="st0" width="163.2" height="16.3"/>
	<rect x="116.3" y="451.9" class="st0" width="16.3" height="16.3"/>
	<rect x="148.9" y="451.9" class="st0" width="16.3" height="16.3"/>
	<rect x="83.6" y="451.9" class="st0" width="16.3" height="16.3"/>
	<path class="st0" d="M486.9,268.4l11.5-11.5c12.7-12.7,12.7-33.4,0-46.2c-12.3-12.3-33.8-12.3-46.2,0l-74.9,74.9V138.4L242.1,3H2
		v506h375.4V377.8l97.9-97.9l11.5,11.5l-46.2,46.2l11.5,11.5l57.7-57.7L486.9,268.4z M463.8,222.2c6.2-6.2,16.9-6.2,23.1,0
		c6.4,6.4,6.4,16.7,0,23.1l-11.5,11.5l-23.1-23.1L463.8,222.2z M246.8,30.9l102.7,102.7H246.8V30.9z M361.1,492.7H18.3V19.3h212.2
		v130.6h130.6v151.9l-89.7,89.6l-7.7,53.9l53.9-7.7l43.5-43.5V492.7z M286.4,402.5l20.2,20.2l-23.6,3.4L286.4,402.5z M319.6,412.6
		l-23.1-23.1l144.3-144.3l23.1,23.1L319.6,412.6z"/>
</g>
</svg>
